<svg xmlns="http://www.w3.org/2000/svg" width="22" height="22.795" viewBox="0 0 22 22.795"><g transform="translate(-8.193)"><path d="M28.69,1.455H26.726a.364.364,0,1,0,0,.727H27.4a1.494,1.494,0,0,0-.216.776V20.152a.364.364,0,1,0,.727,0V2.958a.776.776,0,1,1,1.552,0V20.152a1.915,1.915,0,0,1-3.831,0V.364A.364.364,0,0,0,25.271,0H8.557a.364.364,0,0,0-.364.364V20.152a2.646,2.646,0,0,0,2.643,2.643H27.55a2.646,2.646,0,0,0,2.643-2.643V2.958A1.505,1.505,0,0,0,28.69,1.455ZM10.836,22.067a1.918,1.918,0,0,1-1.915-1.915V.727H24.907V20.152a2.636,2.636,0,0,0,.824,1.915Z" fill="#c8c8c8"/><path d="M61.3,40H48.554a.361.361,0,0,0-.361.361v3.611a.361.361,0,0,0,.361.361H61.3a.361.361,0,0,0,.361-.361V40.361A.361.361,0,0,0,61.3,40Zm-.361,3.611H48.915V40.722h12.02Z" transform="translate(-38.074 -38.074)" fill="#c8c8c8"/><path d="M61.3,145H48.554a.361.361,0,1,0,0,.722H61.3a.361.361,0,1,0,0-.722Z" transform="translate(-38.074 -137.966)" fill="#c8c8c8"/><path d="M201.516,205h-5.649a.361.361,0,1,0,0,.722h5.649a.361.361,0,1,0,0-.722Z" transform="translate(-178.201 -195.055)" fill="#c8c8c8"/><path d="M54.2,205H48.554a.361.361,0,0,0,0,.722H54.2a.361.361,0,1,0,0-.722Z" transform="translate(-38.074 -195.055)" fill="#c8c8c8"/><path d="M201.516,235h-5.649a.361.361,0,1,0,0,.722h5.649a.361.361,0,1,0,0-.722Z" transform="translate(-178.201 -223.6)" fill="#c8c8c8"/><path d="M54.2,235H48.554a.361.361,0,0,0,0,.722H54.2a.361.361,0,1,0,0-.722Z" transform="translate(-38.074 -223.6)" fill="#c8c8c8"/><path d="M201.516,265h-5.649a.361.361,0,1,0,0,.722h5.649a.361.361,0,1,0,0-.722Z" transform="translate(-178.201 -252.145)" fill="#c8c8c8"/><path d="M201.516,295h-5.649a.361.361,0,1,0,0,.722h5.649a.361.361,0,1,0,0-.722Z" transform="translate(-178.201 -280.689)" fill="#c8c8c8"/><path d="M195.867,325.722h3.723a.361.361,0,1,0,0-.722h-3.723a.361.361,0,1,0,0,.722Z" transform="translate(-178.212 -309.234)" fill="#c8c8c8"/><path d="M199.589,415h-3.723a.361.361,0,0,0,0,.722h3.723a.361.361,0,0,0,0-.722Z" transform="translate(-178.211 -394.854)" fill="#c8c8c8"/><path d="M201.516,385h-5.649a.361.361,0,1,0,0,.722h5.649a.361.361,0,1,0,0-.722Z" transform="translate(-178.201 -366.298)" fill="#c8c8c8"/><path d="M54.2,265H48.554a.361.361,0,0,0-.361.361v7.223a.361.361,0,0,0,.361.361H54.2a.361.361,0,0,0,.361-.361v-7.223A.361.361,0,0,0,54.2,265Zm-.361,7.223H48.915v-6.5h4.926Z" transform="translate(-38.074 -252.076)" fill="#c8c8c8"/></g></svg>